#!OML:ASF C:\ViconDB\ViconDB\414\Spring2016\041811\Spring2016.ASF
:FULLY-SPECIFIED
:DEGREES
369
root 5.11869 21.9087 -50.5578 -175.685 -7.08559 179.787
lowerback 8.15046 0.431042 -1.78384
upperback -0.329207 0.44174 1.33024
thorax -4.94299 0.269939 2.33511
lowerneck -16.3011 -0.734047 -11.8234
upperneck 18.7075 -0.224134 9.15632
head 8.51563 -0.106978 5.05618
rclavicle 2.94201e-014 3.57812e-015
rhumerus -11.214 6.54653 -42.7206
rradius 123.224
rwrist -25.149
rhand -28.5942 -17.2723
rfingers 7.12502
rthumb -1.95978 -47.243
lclavicle 2.94201e-014 3.57812e-015
lhumerus -20.6384 -4.8698 46.7101
lradius 100.24
lwrist 10.5158
lhand -32.9264 19.3373
lfingers 7.12502
lthumb -6.14312 49.2283
rfemur -9.55918 -18.3751 15.8246
rtibia 25.6784
rfoot -28.1824 10.3594
rtoes -16.2804
lfemur -5.09807 -3.64866 -8.59854
ltibia 13.1553
lfoot 9.04444 8.33857
ltoes -4.57796
370
root 5.11914 21.8897 -50.7996 -175.706 -6.8675 179.704
lowerback 8.45953 0.534961 -1.81458
upperback -0.14679 0.566556 1.35027
thorax -4.93397 0.327626 2.35732
lowerneck -16.313 -0.662643 -11.6759
upperneck 18.4902 -0.0807032 8.901
head 8.42954 -0.0438608 4.9519
rclavicle -1.94809e-014 -1.23246e-014
rhumerus -11.214 6.54653 -42.7206
rradius 123.224
rwrist -25.149
rhand -28.5942 -17.2723
rfingers 7.12502
rthumb -1.95978 -47.243
lclavicle -1.94809e-014 -1.23246e-014
lhumerus -20.6384 -4.8698 46.7101
lradius 100.24
lwrist 10.5158
lhand -32.9264 19.3373
lfingers 7.12502
lthumb -6.14312 49.2283
rfemur -10.4428 -18.7162 15.9824
rtibia 24.4289
rfoot -27.6491 10.4131
rtoes -14.9185
lfemur -5.60343 -4.1686 -8.63967
ltibia 11.8401
lfoot 8.76655 9.0323
ltoes -4.73509
371
root 5.11598 21.8623 -51.0374 -175.75 -6.63884 179.569
lowerback 8.84623 0.616562 -1.80031
upperback 0.0731771 0.658575 1.28021
thorax -4.92571 0.365696 2.26335
lowerneck -15.8978 -0.241109 -11.2356
upperneck 17.6825 0.49966 8.47953
head 8.02326 0.241367 4.76548
rclavicle -3.72721e-015 4.77083e-015
rhumerus -11.214 6.54653 -42.7206
rradius 123.224
rwrist -25.149
rhand -28.5942 -17.2723
rfingers 7.12502
rthumb -1.95978 -47.243
lclavicle -3.72721e-015 4.77083e-015
lhumerus -20.6384 -4.8698 46.7101
lradius 100.24
lwrist 10.5158
lhand -32.9264 19.3373
lfingers 7.12502
lthumb -6.14312 49.2283
rfemur -11.4543 -19.2863 16.0648
rtibia 23.4395
rfoot -27.2989 10.3111
rtoes -14.8295
lfemur -6.07394 -5.10315 -8.63326
ltibia 10.4
lfoot 8.4757 10.3272
ltoes -4.2319
372
root 5.11429 21.8177 -51.2759 -175.82 -6.39999 179.511
lowerback 9.27217 0.668109 -1.74575
upperback 0.265578 0.714736 1.25436
thorax -4.96588 0.385707 2.19682
lowerneck -17.1501 -2.48227 -18.4531
upperneck 18.2566 -2.88831 18.3273
head 9.05163 -0.953964 9.31108
rclavicle 9.54166e-015 -9.93923e-015
rhumerus -11.214 6.54653 -42.7206
rradius 123.224
rwrist -25.149
rhand -28.5942 -17.2723
rfingers 7.12502
rthumb -1.95978 -47.243
lclavicle 9.54166e-015 -9.93923e-015
lhumerus -20.6384 -4.8698 46.7101
lradius 100.24
lwrist 10.5158
lhand -32.9264 19.3373
lfingers 7.12502
lthumb -6.14312 49.2283
rfemur -12.5564 -19.6604 16.2471
rtibia 22.6056
rfoot -26.9857 10.35
rtoes -14.0039
lfemur -6.35812 -4.42632 -8.67174
ltibia 8.69734
lfoot 8.87968 10.2862
ltoes -4.12809
373
root 5.13094 21.7376 -51.4988 -176.157 -6.1992 178.676
lowerback 10.2885 0.77852 -2.8199
upperback 0.490507 0.698942 1.11647
thorax -5.31248 0.397247 2.65836
lowerneck -23.0768 -0.898878 -8.77142
upperneck 24.083 -0.350637 6.67142
head 11.727 -0.23739 3.88619
rclavicle 7.55382e-015 7.95139e-015
rhumerus -11.214 6.54653 -42.7206
rradius 123.224
rwrist -25.149
rhand -28.5942 -17.2723
rfingers 7.12502
rthumb -1.95978 -47.243
lclavicle 7.55382e-015 7.95139e-015
lhumerus -20.6384 -4.8698 46.7101
lradius 100.24
lwrist 10.5158
lhand -32.9264 19.3373
lfingers 7.12502
lthumb -6.14312 49.2283
rfemur -13.3949 -19.5937 15.533
rtibia 21.961
rfoot -26.6904 10.8143
rtoes -13.6477
lfemur -6.01635 -3.90612 -9.50313
ltibia 6.40226
lfoot 9.76324 10.372
ltoes -4.50003
374
root 5.13128 21.6569 -51.7328 -176.24 -6.00417 178.557
lowerback 10.9135 0.746738 -3.18535
upperback 0.569964 0.590452 1.23553
thorax -5.57794 0.352813 3.00605
lowerneck -23.2565 -0.300799 -7.91199
upperneck 24.1546 0.46498 5.77009
head 11.7198 0.0935975 3.53526
rclavicle -1.28216e-014 9.14409e-015
rhumerus -11.214 6.54653 -42.7206
rradius 123.224
rwrist -25.149
rhand -28.5942 -17.2723
rfingers 7.12502
rthumb -1.95978 -47.243
lclavicle -1.28216e-014 9.14409e-015
lhumerus -20.6384 -4.8698 46.7101
lradius 100.24
lwrist 10.5158
lhand -32.9264 19.3373
lfingers 7.12502
lthumb -6.14312 49.2283
rfemur -14.6367 -20.3687 15.6527
rtibia 21.4195
rfoot -27.2781 10.9754
rtoes -13.6201
lfemur -4.61519 -3.26502 -9.45428
ltibia 1.56857
lfoot 11.7186 10.9044
ltoes -5.03902
375
root 5.13071 21.5654 -51.9674 -176.281 -5.85655 178.535
lowerback 11.4464 0.639636 -3.51355
upperback 0.690687 0.384698 1.38249
thorax -5.7376 0.257074 3.38112
lowerneck -23.4887 0.0635703 -7.2902
upperneck 24.3063 0.922725 5.23002
head 11.7925 0.284007 3.30815
rclavicle 3.67752e-015 -2.50469e-014
rhumerus -11.214 6.54653 -42.7206
rradius 123.224
rwrist -25.149
rhand -28.5942 -17.2723
rfingers 7.12502
rthumb -1.95978 -47.243
lclavicle 3.67752e-015 -2.50469e-014
lhumerus -20.6384 -4.8698 46.7101
lradius 100.24
lwrist 10.5158
lhand -32.9264 19.3373
lfingers 7.12502
lthumb -6.14312 49.2283
rfemur -15.7943 -19.7364 15.6209
rtibia 21.1196
rfoot -26.4169 11.5492
rtoes -13.7237
lfemur -4.84596 -2.67034 -9.46864
ltibia -6.56983e-014
lfoot 12.0792 10.779
ltoes -6.0188
376
root 5.13248 21.4743 -52.198 -176.212 -5.74084 178.331
lowerback 11.9385 0.579352 -3.92861
upperback 0.762811 0.22535 1.433
thorax -5.92614 0.188788 3.69937
lowerneck -23.5633 0.280877 -6.82423
upperneck 24.3379 1.19717 4.76744
head 11.8062 0.389027 3.1016
rclavicle 8.64713e-015 2.38542e-015
rhumerus -11.214 6.54653 -42.7206
rradius 123.224
rwrist -25.149
rhand -28.5942 -17.2723
rfingers 7.12502
rthumb -1.95978 -47.243
lclavicle 8.64713e-015 2.38542e-015
lhumerus -20.6384 -4.8698 46.7101
lradius 100.24
lwrist 10.5158
lhand -32.9264 19.3373
lfingers 7.12502
lthumb -6.14312 49.2283
rfemur -17.1298 -19.4648 15.5169
rtibia 20.7922
rfoot -26.1334 12.5243
rtoes -13.6996
lfemur -6.23997 -2.09876 -9.61931
ltibia 1.47101e-014
lfoot 11.8999 10.6929
ltoes -6.51596
377
root 5.12346 21.3543 -52.4159 -175.842 -5.47848 178.18
lowerback 12.1837 0.567597 -3.98981
upperback 0.773651 0.184953 1.37639
thorax -6.04826 0.170986 3.6827
lowerneck -23.5992 0.533004 -6.34747
upperneck 24.1637 1.52521 4.32353
head 11.7327 0.531063 2.90443
rclavicle -1.0138e-014 -8.74653e-015
rhumerus -11.214 6.54653 -42.7206
rradius 123.224
rwrist -25.149
rhand -28.5942 -17.2723
rfingers 7.12502
rthumb -1.95978 -47.243
lclavicle -1.0138e-014 -8.74653e-015
lhumerus -20.6384 -4.8698 46.7101
lradius 100.24
lwrist 10.5158
lhand -32.9264 19.3373
lfingers 7.12502
lthumb -6.14312 49.2283
rfemur -19.3535 -19.8482 15.6897
rtibia 21.146
rfoot -26.5658 13.2375
rtoes -13.8628
lfemur -7.79329 -1.33551 -9.91888
ltibia -5.56597e-014
lfoot 11.9032 10.6424
ltoes -6.34388
378
root 5.12302 21.2166 -52.6404 -175.818 -5.35696 178.162
lowerback 12.7609 0.579146 -4.0589
upperback 0.846886 0.159053 1.43286
thorax -6.29187 0.159845 3.79103
lowerneck -23.6394 0.830311 -5.83031
upperneck 24.079 1.931 3.7511
head 11.6959 0.689597 2.66785
rclavicle 9.74045e-015 -1.03368e-014
rhumerus -11.214 6.54653 -42.7206
rradius 123.224
rwrist -25.149
rhand -28.5942 -17.2723
rfingers 7.12502
rthumb -1.95978 -47.243
lclavicle 9.74045e-015 -1.03368e-014
lhumerus -20.6384 -4.8698 46.7101
lradius 100.24
lwrist 10.5158
lhand -32.9264 19.3373
lfingers 7.12502
lthumb -6.14312 49.2283
rfemur -20.9569 -19.2592 15.7276
rtibia 21.5285
rfoot -26.2881 14.328
rtoes -13.3007
lfemur -8.99704 -0.755204 -9.98743
ltibia -2.22639e-014
lfoot 12.0584 11.1715
ltoes -7.26879
379
root 5.12223 21.0649 -52.8661 -175.865 -5.30132 178.053
lowerback 13.3645 0.556236 -4.26055
upperback 0.994776 0.060277 1.489
thorax -6.46327 0.111209 3.98911
lowerneck -23.679 1.0799 -5.40838
upperneck 23.8898 2.27726 3.29267
head 11.6242 0.83248 2.47918
rclavicle -9.0447e-015 -1.03368e-014
rhumerus -11.214 6.54653 -42.7206
rradius 123.224
rwrist -25.149
rhand -28.5942 -17.2723
rfingers 7.12502
rthumb -1.95978 -47.243
lclavicle -9.0447e-015 -1.03368e-014
lhumerus -29.0581 -12.8016 32.3437
lradius 97.3644
lwrist 11.8966
lhand -34.9643 14.0627
lfingers 7.12502
lthumb -8.11032 43.887
rfemur -22.3201 -22.1763 16.9321
rtibia 22.189
rfoot -27.2221 13.2938
rtoes -13.7923
lfemur -10.1333 -0.259754 -10.1433
ltibia -3.18055e-015
lfoot 12.0859 11.7102
ltoes -7.29158
380
root 5.12089 20.8527 -53.0921 -175.9 -5.23508 178.028
lowerback 14.0292 0.4941 -4.45314
upperback 1.08147 -0.0920825 1.55708
thorax -6.72667 0.041246 4.20885
lowerneck -23.5377 1.25112 -5.07895
upperneck 23.6239 2.4952 2.95899
head 11.4951 0.925982 2.32754
rclavicle -3.97569e-015 1.15295e-014
rhumerus -11.214 6.54653 -42.7206
rradius 123.224
rwrist -25.149
rhand -28.5942 -17.2723
rfingers 7.12502
rthumb -1.95978 -47.243
lclavicle -3.97569e-015 1.15295e-014
lhumerus -31.4587 -12.8205 33.1377
lradius 97.9864
lwrist 11.826
lhand -35.0766 13.7802
lfingers 7.12502
lthumb -8.2187 43.6003
rfemur -23.7359 -22.0889 17.0972
rtibia 22.8333
rfoot -26.2339 12.7648
rtoes -13.0708
lfemur -11.2199 0.252837 -10.2324
ltibia 5.00937e-014
lfoot 12.0712 12.3666
ltoes -6.49126
381
root 5.11923 20.6248 -53.3165 -175.988 -5.20653 178.009
lowerback 14.7488 0.421888 -4.62258
upperback 1.21332 -0.265171 1.60751
thorax -6.96775 -0.0429367 4.40479
lowerneck -23.5463 1.76596 -4.26866
upperneck 23.3017 3.1399 2.26511
head 11.3725 1.21294 2.0345
rclavicle 1.88845e-014 1.11319e-014
rhumerus -11.214 6.54653 -42.7206
rradius 123.224
rwrist -25.149
rhand -28.5942 -17.2723
rfingers 7.12502
rthumb -1.95978 -47.243
lclavicle 1.88845e-014 1.11319e-014
lhumerus -33.9796 -13.1571 34.0393
lradius 99.4067
lwrist 13.2179
lhand -35.8283 15.6276
lfingers 7.12502
lthumb -8.94414 45.418
rfemur -25.1649 -22.422 17.3839
rtibia 23.6347
rfoot -26.1066 12.2992
rtoes -12.5423
lfemur -12.2395 0.713686 -10.3492
ltibia -2.38542e-014
lfoot 12.0618 12.8926
ltoes -6.68987
382
root 5.12074 20.3747 -53.5372 -176.142 -5.22824 178.039
lowerback 15.5137 0.414217 -4.62786
upperback 1.40182 -0.334511 1.67255
thorax -7.18284 -0.0861063 4.50485
lowerneck -23.3012 1.96964 -3.94884
upperneck 22.6998 3.45392 1.78539
head 11.1055 1.34342 1.84056
rclavicle -2.68359e-015 -2.14687e-014
rhumerus -11.214 6.54653 -42.7206
rradius 123.224
rwrist -25.149
rhand -28.5942 -17.2723
rfingers 7.12502
rthumb -1.95978 -47.243
lclavicle -2.68359e-015 -2.14687e-014
lhumerus -36.059 -12.9977 35.1143
lradius 100.095
lwrist 13.9955
lhand -36.7014 15.5385
lfingers 7.12502
lthumb -9.78656 45.2911
rfemur -26.3242 -22.6116 17.6085
rtibia 24.2981
rfoot -26.211 11.977
rtoes -11.5343
lfemur -13.1866 1.11161 -10.4483
ltibia -1.11319e-014
lfoot 12.4637 12.9878
ltoes -7.21546
